# xmcd
#
# Track frame offsets:
#	182
#	14185
#	26575
#	37147
#	50780
#	69395
#	82852
#	96530
#	110560
#	130357
#
# Disc length: 1931 seconds
# Revision: 6
# Processed by: cddbd v1.5.2PL0 Copyright (c) Steve Scherf et al.
# Submitted via: dBpowerAMP V12.0
#
DISCID=9107890a
DTITLE=Randy Travis - Storms Of Life
DYEAR=1986
DGENRE=Country
TTITLE0=On The Other Hand
TTITLE1=The Storms Of Life
TTITLE2=My Heart Cracked (But It Did Not Break)
TTITLE3=Diggin' Up Bones
TTITLE4=No Place Like Home
TTITLE5=1982
TTITLE6=Send My Body
TTITLE7=Messin' With My Mind
TTITLE8=Reasons I Cheat
TTITLE9=There'll Always Be A Honky Tonk Somewhere
EXTD=
EXTT0=
EXTT1=
EXTT2=
EXTT3=
EXTT4=
EXTT5=
EXTT6=
EXTT7=
EXTT8=
EXTT9=
PLAYORDER=
